<?xml version="1.0" encoding="UTF-8" standalone="no"?>
<svg
   version="1.1"
   id="Layer_1"
   x="0px"
   y="0px"
   viewBox="0 0 30.000001 36.69484"
   xml:space="preserve"
   sodipodi:docname="popcorn-icon-half.svg"
   width="30"
   height="36.694839"
   inkscape:version="1.4.2 (f4327f4, 2025-05-13)"
   xmlns:inkscape="http://www.inkscape.org/namespaces/inkscape"
   xmlns:sodipodi="http://sodipodi.sourceforge.net/DTD/sodipodi-0.dtd"
   xmlns="http://www.w3.org/2000/svg"
   xmlns:svg="http://www.w3.org/2000/svg"><defs
     id="defs1" /><sodipodi:namedview
     id="namedview1"
     pagecolor="#ffffff"
     bordercolor="#000000"
     borderopacity="0.25"
     inkscape:showpageshadow="2"
     inkscape:pageopacity="0.0"
     inkscape:pagecheckerboard="0"
     inkscape:deskcolor="#d1d1d1"
     inkscape:zoom="29.541016"
     inkscape:cx="12.321851"
     inkscape:cy="20.700033"
     inkscape:window-width="3840"
     inkscape:window-height="2054"
     inkscape:window-x="-11"
     inkscape:window-y="-11"
     inkscape:window-maximized="1"
     inkscape:current-layer="Layer_1" /><path
     id="path1"
     style="stroke-width:0.298569"
     d="M 12.697266 0.00390625 C 12.291959 -0.010275761 11.883077 0.008757645 11.478516 0.0625 C 10.657453 0.16998472 9.854428 0.41942195 9.1289062 0.81054688 C 7.9495601 1.4464981 6.9773493 2.4485139 6.4667969 3.8398438 C 5.5442198 3.8906004 4.6964489 4.161858 3.9589844 4.5917969 C 3.1468776 5.0665211 2.4682802 5.7296929 1.9726562 6.5 C 1.4770323 7.2732928 1.1647099 8.1603747 1.078125 9.0859375 C 1.0034828 9.8950585 1.1045837 10.731086 1.4121094 11.53125 C 0.97619914 12.005974 0.62947992 12.584864 0.390625 13.214844 C 0.10101341 13.976194 -0.03697279 14.822547 0.0078125 15.640625 C 0.0525978 16.494531 0.30147504 17.325819 0.78515625 18.021484 C 0.93742626 18.239439 1.1095853 18.445746 1.3066406 18.630859 L 5.0214844 36.685547 L 10.550781 36.685547 L 8.9570312 17.419922 L 3.4414062 17.419922 L 3.21875 17.419922 C 2.9171957 17.273623 2.6799498 17.067092 2.5097656 16.822266 C 2.2559823 16.460998 2.1284335 16.004133 2.1015625 15.523438 C 2.0746913 15.003929 2.1634643 14.460468 2.3515625 13.964844 C 2.5605606 13.412492 2.8888685 12.937937 3.2949219 12.654297 L 4.0898438 12.101562 L 3.6035156 11.265625 C 3.2332905 10.626688 3.101363 9.9362599 3.1640625 9.2734375 C 3.2178048 8.6942144 3.4207659 8.1314221 3.7402344 7.6328125 C 4.0567171 7.1342028 4.4932419 6.7097574 5.0097656 6.4082031 C 5.6218314 6.0529064 6.3550534 5.8706703 7.1582031 5.9453125 L 8.0898438 6.03125 L 8.28125 5.1152344 C 8.5230906 3.9538024 9.2342333 3.1388986 10.126953 2.6582031 C 10.628549 2.3865056 11.184561 2.2160757 11.757812 2.1503906 C 12.33405 2.0757485 12.922257 2.0974814 13.474609 2.2109375 C 14.046373 2.3301269 14.574316 2.5493728 15 2.8652344 L 15 0.48046875 C 14.646453 0.33776224 14.27549 0.22562084 13.894531 0.14648438 C 13.504899 0.065870835 13.102573 0.018088261 12.697266 0.00390625 z M 8.4960938 9.4589844 C 7.7437007 9.4589844 7.1386719 10.068952 7.1386719 10.818359 C 7.1386719 11.567766 7.7466864 12.175781 8.4960938 12.175781 C 9.245501 12.175781 9.8554688 11.567766 9.8554688 10.818359 C 9.8554688 10.068952 9.245501 9.4589844 8.4960938 9.4589844 z M 14.378906 12.039062 C 13.629499 12.039062 13.019531 12.649031 13.019531 13.398438 C 13.019531 14.147846 13.629499 14.755859 14.378906 14.755859 C 14.602788 14.755859 14.813664 14.70169 15 14.605469 L 15 12.189453 C 14.813664 12.093232 14.602788 12.039062 14.378906 12.039062 z M 10.945312 17.419922 L 12.539062 36.685547 L 15 36.685547 L 15 17.419922 L 10.945312 17.419922 z " /></svg>
