<?xml version="1.0" encoding="UTF-8" standalone="no"?>
<svg
   version="1.1"
   id="Layer_1"
   x="0px"
   y="0px"
   viewBox="0 0 30.000001 36.69484"
   xml:space="preserve"
   sodipodi:docname="popcorn-icon.svg"
   width="30"
   height="36.694839"
   inkscape:version="1.4.2 (f4327f4, 2025-05-13)"
   xmlns:inkscape="http://www.inkscape.org/namespaces/inkscape"
   xmlns:sodipodi="http://sodipodi.sourceforge.net/DTD/sodipodi-0.dtd"
   xmlns="http://www.w3.org/2000/svg"
   xmlns:svg="http://www.w3.org/2000/svg"><defs
     id="defs1" /><sodipodi:namedview
     id="namedview1"
     pagecolor="#ffffff"
     bordercolor="#000000"
     borderopacity="0.25"
     inkscape:showpageshadow="2"
     inkscape:pageopacity="0.0"
     inkscape:pagecheckerboard="0"
     inkscape:deskcolor="#d1d1d1"
     inkscape:zoom="14.770508"
     inkscape:cx="28.570446"
     inkscape:cy="34.359007"
     inkscape:window-width="3840"
     inkscape:window-height="2054"
     inkscape:window-x="-11"
     inkscape:window-y="-11"
     inkscape:window-maximized="1"
     inkscape:current-layer="Layer_1" /><g
     id="g1"
     transform="matrix(0.29856865,0,0,0.29856865,-6.4112671e-4,-0.00223382)"><path
       d="M 4.38,62.41 C 3.72,61.79 3.14,61.1 2.63,60.37 1.01,58.04 0.18,55.25 0.03,52.39 -0.12,49.65 0.34,46.82 1.31,44.27 2.11,42.16 3.27,40.22 4.73,38.63 3.7,35.95 3.36,33.15 3.61,30.44 c 0.29,-3.1 1.34,-6.07 3,-8.66 1.66,-2.58 3.93,-4.8 6.65,-6.39 2.47,-1.44 5.31,-2.35 8.4,-2.52 1.71,-4.66 4.97,-8.02 8.92,-10.15 2.43,-1.31 5.12,-2.14 7.87,-2.5 2.71,-0.36 5.48,-0.26 8.09,0.28 4.14,0.86 7.92,2.85 10.54,5.91 4.4,-1.39 9.32,-1.13 13.71,0.43 2.37,0.84 4.61,2.06 6.54,3.62 1.98,1.59 3.65,3.53 4.82,5.76 1.47,2.8 2.17,6.01 1.74,9.5 2.87,0.77 5.5,2.21 7.79,4.15 2.76,2.33 5.02,5.39 6.56,8.84 1.53,3.43 2.35,7.25 2.23,11.12 -0.15,4.86 -1.75,9.78 -5.23,14.1 L 83.05,122.91 H 66.57 l 2.77,-64.53 h 21.28 c 1.87,-2.75 2.75,-5.77 2.84,-8.74 0.09,-2.8 -0.51,-5.57 -1.62,-8.07 -1.11,-2.48 -2.73,-4.67 -4.69,-6.33 -2.2,-1.86 -4.84,-3.03 -7.63,-3.12 l -4.83,-0.15 1.61,-4.53 c 1.08,-3.05 0.79,-5.75 -0.36,-7.94 -0.71,-1.35 -1.75,-2.55 -3,-3.55 -1.3,-1.04 -2.83,-1.88 -4.47,-2.46 -3.67,-1.3 -7.78,-1.32 -11.01,0.37 l -3.08,1.62 -1.65,-3.06 C 51.32,9.8 48.44,8.1 45.13,7.41 43.28,7.03 41.31,6.96 39.38,7.21 37.46,7.43 35.6,8 33.92,8.91 c -2.99,1.61 -5.37,4.34 -6.18,8.23 l -0.64,3.07 -3.12,-0.29 c -2.69,-0.25 -5.15,0.36 -7.2,1.55 -1.73,1.01 -3.19,2.43 -4.25,4.1 -1.07,1.67 -1.75,3.56 -1.93,5.5 -0.21,2.22 0.23,4.53 1.47,6.67 l 1.63,2.8 -2.66,1.85 C 9.68,43.34 8.58,44.93 7.88,46.78 7.25,48.44 6.95,50.26 7.04,52 c 0.09,1.61 0.52,3.14 1.37,4.35 0.57,0.82 1.36,1.51 2.37,2 H 11.53 30 l 5.34,64.53 H 16.82 Z M 62.1,26.24 c 2.51,0 4.55,2.04 4.55,4.55 0,2.51 -2.04,4.55 -4.55,4.55 -2.51,0 -4.55,-2.04 -4.55,-4.55 0.01,-2.52 2.04,-4.55 4.55,-4.55 z M 48.16,40.33 c 2.51,0 4.55,2.04 4.55,4.55 0,2.51 -2.04,4.55 -4.55,4.55 -2.51,0 -4.55,-2.04 -4.55,-4.55 0,-2.51 2.04,-4.55 4.55,-4.55 z m -19.7,-8.64 c 2.51,0 4.55,2.04 4.55,4.55 0,2.51 -2.04,4.55 -4.55,4.55 -2.51,0 -4.55,-2.04 -4.55,-4.55 0,-2.51 2.03,-4.55 4.55,-4.55 z m 31.49,91.19 H 42 L 36.66,58.35 h 26.06 z"
       id="path1" /></g></svg>
